<svg id="Calque_1" data-name="Calque 1" xmlns="http://www.w3.org/2000/svg" viewBox="0 0 600 290.13">
  <defs>
    <style>
      .cls-1 {
        fill: #e41f13;
      }
      
      .cls-1, .cls-2 {
        stroke-width: 0px;
      }
      
      .cls-2 {
        fill: #fff;
        transform: translateX(20%) translateY(5%);
      }
    </style>
  </defs>
  <g>
    <rect class="cls-1" x="0" y="0" width="100%" height="100%"/>
    <path class="cls-2" d="M293.13,127.18v-15.36h-27.25c-2.93,2.99-4.57,4.66-7.49,7.64v59.97c2.93,2.99,4.57,4.66,7.49,7.64h27.25v-15.36h-18.92v-15.5h15.77v-13.97h-15.77v-15.06h18.92ZM146.94,80.42v40.03c2.93,2.99,4.57,4.66,7.49,7.64h26.13v-13.71h-19.22v-8.5h16.5v-11.12h-16.5v-8.27h19.22v-13.72h-26.13c-2.93,2.99-4.57,4.66-7.49,7.64ZM125.8,72.78h-15.56v47.68c2.93,2.99,4.57,4.66,7.49,7.64h25.8v-13.85h-17.73v-41.48ZM191.31,72.78c-2.93,2.99-4.57,4.66-7.49,7.64v40.03c2.93,2.99,4.57,4.66,7.49,7.64h18.57c2.93-2.99,4.57-4.66,7.49-7.64v-40.03c-2.93-2.99-4.57-4.66-7.49-7.64h-18.57ZM203.35,115.62h-5.47v-30.35h5.47v30.35ZM154.5,131.75c-2.93,2.99-4.57,4.66-7.49,7.64v40.03c2.93,2.99,4.57,4.66,7.49,7.64h18.57c2.93-2.99,4.57-4.66,7.49-7.64v-40.03c-2.93-2.99-4.57-4.66-7.49-7.64h-18.57ZM166.54,174.59h-5.47v-30.35h5.47v30.35ZM241.05,98.49l-7.14-25.71h-12.93v55.32h13.36v-27.11l7.14,27.11h12.93v-55.32h-13.36v25.71ZM183.91,139.39v21.16c2.34,2.39,3.65,3.73,5.99,6.12h13.52v6.34h-19.52v14.07h25.8c2.93-2.99,4.57-4.66,7.49-7.64v-21.16c-2.34-2.39-3.65-3.73-5.99-6.12h-13.52v-6.34h19.52v-14.07h-25.8c-2.93,2.99-4.57,4.66-7.49,7.64ZM221.05,139.39v21.16c2.34,2.39,3.65,3.73,5.99,6.12h13.52v6.34h-19.52v14.07h25.8c2.93-2.99,4.57-4.66,7.49-7.64v-21.16c-2.34-2.39-3.65-3.73-5.99-6.12h-13.52v-6.34h19.52v-14.07h-25.8c-2.93,2.99-4.57,4.66-7.49,7.64ZM109.97,131.75v55.32h14.86v-20.54h4.46v20.54h14.17v-21.55c-2.34-2.39-3.65-3.73-5.99-6.12,2.34-2.39,3.65-3.73,5.99-6.12v-13.9c-2.93-2.99-4.57-4.66-7.49-7.64h-26ZM129.29,155.53h-4.45v-12.08h4.45v12.08ZM73.85,111.82c-2.93,2.99-4.57,4.66-7.49,7.64v59.97c2.93,2.99,4.57,4.66,7.49,7.64h24.78c2.93-2.99,4.57-4.66,7.49-7.64v-36.51h-19.96v13.19h5.08v15.6h-9.1v-44.53h9.1v9.44h14.88v-17.16c-2.93-2.99-4.57-4.66-7.49-7.64h-24.78Z"/>
  </g>
</svg>